HIERARCHY
ROOT Hips
{
  OFFSET 0.849866 78.6569 -0.536788
  CHANNELS 6 Xposition Yposition Zposition Zrotation Xrotation Yrotation
  JOINT Bip01_Pelvis
  {
    OFFSET 0 0 0
    CHANNELS 6 Xposition Yposition Zposition Zrotation Xrotation Yrotation
    JOINT BN_Tail_01
    {
      OFFSET -5.52397 -0.332285 0
      CHANNELS 6 Xposition Yposition Zposition Zrotation Xrotation Yrotation
      JOINT BN_Tail_02
      {
        OFFSET 6.48885 -2.032e-005 0
        CHANNELS 6 Xposition Yposition Zposition Zrotation Xrotation Yrotation
        JOINT BN_Tail_03
        {
          OFFSET 7.08759 1.016e-005 -0.00261112
          CHANNELS 6 Xposition Yposition Zposition Zrotation Xrotation Yrotation
          End Site
          {
            OFFSET 0 0 0
          }
        }
      }
    }
    JOINT Bip01_Spine
    {
      OFFSET 4.02227 0.398968 0
      CHANNELS 6 Xposition Yposition Zposition Zrotation Xrotation Yrotation
      JOINT BN_UpperArm_R_01
      {
        OFFSET 4.84413 -3.22857 -3.65581
        CHANNELS 6 Xposition Yposition Zposition Zrotation Xrotation Yrotation
        JOINT BN_Forearm_R_01
        {
          OFFSET 8.51614 0 0
          CHANNELS 6 Xposition Yposition Zposition Zrotation Xrotation Yrotation
          JOINT BN_hand_R_01
          {
            OFFSET 10.1924 0 0
            CHANNELS 6 Xposition Yposition Zposition Zrotation Xrotation Yrotation
            JOINT BN_Finger_R_02
            {
              OFFSET 14.5949 -1.43855 0.585079
              CHANNELS 6 Xposition Yposition Zposition Zrotation Xrotation Yrotation
              End Site
              {
                OFFSET 0 0 0
              }
            }
            JOINT BN_Finger_R_01
            {
              OFFSET 14.4623 0 0
              CHANNELS 6 Xposition Yposition Zposition Zrotation Xrotation Yrotation
              End Site
              {
                OFFSET 0 0 0
              }
            }
          }
        }
      }
      JOINT BN_UpperArm_L_01
      {
        OFFSET 4.84412 -3.22858 3.65557
        CHANNELS 6 Xposition Yposition Zposition Zrotation Xrotation Yrotation
        JOINT BN_Forearm_L_01
        {
          OFFSET 8.51611 0 0
          CHANNELS 6 Xposition Yposition Zposition Zrotation Xrotation Yrotation
          JOINT BN_hand_L_01
          {
            OFFSET 10.1924 0 0
            CHANNELS 6 Xposition Yposition Zposition Zrotation Xrotation Yrotation
            JOINT BN_Finger_L_01
            {
              OFFSET 14.4623 0 0
              CHANNELS 6 Xposition Yposition Zposition Zrotation Xrotation Yrotation
              End Site
              {
                OFFSET 0 0 0
              }
            }
            JOINT BN_Finger_L_02
            {
              OFFSET 14.5949 1.43855 0.585071
              CHANNELS 6 Xposition Yposition Zposition Zrotation Xrotation Yrotation
              End Site
              {
                OFFSET 0 0 0
              }
            }
          }
        }
      }
      JOINT Bip01_R_Thigh
      {
        OFFSET -4.03411 -0.254132 -3.45377
        CHANNELS 6 Xposition Yposition Zposition Zrotation Xrotation Yrotation
        JOINT Bip01_R_Calf
        {
          OFFSET 3.92618 0 0
          CHANNELS 6 Xposition Yposition Zposition Zrotation Xrotation Yrotation
          JOINT Bip01_R_HorseLink
          {
            OFFSET 6.12319 0 0
            CHANNELS 6 Xposition Yposition Zposition Zrotation Xrotation Yrotation
            JOINT Bip01_R_Foot
            {
              OFFSET 9.94776 0 0
              CHANNELS 6 Xposition Yposition Zposition Zrotation Xrotation Yrotation
              JOINT Bip01_R_Toe3
              {
                OFFSET 0.881252 -0.110953 0.0158496
                CHANNELS 6 Xposition Yposition Zposition Zrotation Xrotation Yrotation
                JOINT Bip01_R_Toe31
                {
                  OFFSET 2.32137 0 0
                  CHANNELS 6 Xposition Yposition Zposition Zrotation Xrotation Yrotation
                  JOINT Bip01_R_Toe32
                  {
                    OFFSET 1.63293 0 0
                    CHANNELS 6 Xposition Yposition Zposition Zrotation Xrotation Yrotation
                    JOINT Bip01_R_Toe3Nub
                    {
                      OFFSET 1.72131 0 0
                      CHANNELS 6 Xposition Yposition Zposition Zrotation Xrotation Yrotation
                      End Site
                      {
                        OFFSET 0 0 0
                      }
                    }
                  }
                }
              }
              JOINT Bip01_R_Toe2
              {
                OFFSET 0.994751 0.967285 -1.09428
                CHANNELS 6 Xposition Yposition Zposition Zrotation Xrotation Yrotation
                JOINT Bip01_R_Toe21
                {
                  OFFSET 2.20201 0 0
                  CHANNELS 6 Xposition Yposition Zposition Zrotation Xrotation Yrotation
                  JOINT Bip01_R_Toe22
                  {
                    OFFSET 1.84925 0 0
                    CHANNELS 6 Xposition Yposition Zposition Zrotation Xrotation Yrotation
                    JOINT Bip01_R_Toe2Nub
                    {
                      OFFSET 1.70976 0 0
                      CHANNELS 6 Xposition Yposition Zposition Zrotation Xrotation Yrotation
                      End Site
                      {
                        OFFSET 0 0 0
                      }
                    }
                  }
                }
              }
              JOINT Bip01_R_Toe1
              {
                OFFSET 1.3748 1.34027 -0.0712419
                CHANNELS 6 Xposition Yposition Zposition Zrotation Xrotation Yrotation
                JOINT Bip01_R_Toe11
                {
                  OFFSET 2.26122 0 0
                  CHANNELS 6 Xposition Yposition Zposition Zrotation Xrotation Yrotation
                  JOINT Bip01_R_Toe12
                  {
                    OFFSET 2.22215 0 0
                    CHANNELS 6 Xposition Yposition Zposition Zrotation Xrotation Yrotation
                    JOINT Bip01_R_Toe1Nub
                    {
                      OFFSET 1.61867 0 0
                      CHANNELS 6 Xposition Yposition Zposition Zrotation Xrotation Yrotation
                      End Site
                      {
                        OFFSET 0 0 0
                      }
                    }
                  }
                }
              }
              JOINT Bip01_R_Toe0
              {
                OFFSET 1.40695 0.687986 0.883783
                CHANNELS 6 Xposition Yposition Zposition Zrotation Xrotation Yrotation
                JOINT Bip01_R_Toe01
                {
                  OFFSET 2.26828 0 0
                  CHANNELS 6 Xposition Yposition Zposition Zrotation Xrotation Yrotation
                  JOINT Bip01_R_Toe02
                  {
                    OFFSET 2.09769 0 0
                    CHANNELS 6 Xposition Yposition Zposition Zrotation Xrotation Yrotation
                    JOINT Bip01_R_Toe0Nub
                    {
                      OFFSET 1.53753 0 0
                      CHANNELS 6 Xposition Yposition Zposition Zrotation Xrotation Yrotation
                      End Site
                      {
                        OFFSET 0 0 0
                      }
                    }
                  }
                }
              }
            }
          }
        }
      }
      JOINT Bip01_L_Thigh
      {
        OFFSET -4.03411 -0.254147 3.45377
        CHANNELS 6 Xposition Yposition Zposition Zrotation Xrotation Yrotation
        JOINT Bip01_L_Calf
        {
          OFFSET 3.92616 0 0
          CHANNELS 6 Xposition Yposition Zposition Zrotation Xrotation Yrotation
          JOINT Bip01_L_HorseLink
          {
            OFFSET 6.1232 0 0
            CHANNELS 6 Xposition Yposition Zposition Zrotation Xrotation Yrotation
            JOINT Bip01_L_Foot
            {
              OFFSET 9.94775 0 0
              CHANNELS 6 Xposition Yposition Zposition Zrotation Xrotation Yrotation
              JOINT Bip01_L_Toe3
              {
                OFFSET 0.881246 -0.110986 -0.0157582
                CHANNELS 6 Xposition Yposition Zposition Zrotation Xrotation Yrotation
                JOINT Bip01_L_Toe31
                {
                  OFFSET 2.32136 0 0
                  CHANNELS 6 Xposition Yposition Zposition Zrotation Xrotation Yrotation
                  JOINT Bip01_L_Toe32
                  {
                    OFFSET 1.63293 0 0
                    CHANNELS 6 Xposition Yposition Zposition Zrotation Xrotation Yrotation
                    JOINT Bip01_L_Toe3Nub
                    {
                      OFFSET 1.7213 0 0
                      CHANNELS 6 Xposition Yposition Zposition Zrotation Xrotation Yrotation
                      End Site
                      {
                        OFFSET 0 0 0
                      }
                    }
                  }
                }
              }
              JOINT Bip01_L_Toe2
              {
                OFFSET 0.994649 0.967162 1.09447
                CHANNELS 6 Xposition Yposition Zposition Zrotation Xrotation Yrotation
                JOINT Bip01_L_Toe21
                {
                  OFFSET 2.202 0 0
                  CHANNELS 6 Xposition Yposition Zposition Zrotation Xrotation Yrotation
                  JOINT Bip01_L_Toe22
                  {
                    OFFSET 1.84926 0 0
                    CHANNELS 6 Xposition Yposition Zposition Zrotation Xrotation Yrotation
                    JOINT Bip01_L_Toe2Nub
                    {
                      OFFSET 1.70976 0 0
                      CHANNELS 6 Xposition Yposition Zposition Zrotation Xrotation Yrotation
                      End Site
                      {
                        OFFSET 0 0 0
                      }
                    }
                  }
                }
              }
              JOINT Bip01_L_Toe1
              {
                OFFSET 1.37483 1.34021 0.0715086
                CHANNELS 6 Xposition Yposition Zposition Zrotation Xrotation Yrotation
                JOINT Bip01_L_Toe11
                {
                  OFFSET 2.26124 0 0
                  CHANNELS 6 Xposition Yposition Zposition Zrotation Xrotation Yrotation
                  JOINT Bip01_L_Toe12
                  {
                    OFFSET 2.22214 0 0
                    CHANNELS 6 Xposition Yposition Zposition Zrotation Xrotation Yrotation
                    JOINT Bip01_L_Toe1Nub
                    {
                      OFFSET 1.61867 0 0
                      CHANNELS 6 Xposition Yposition Zposition Zrotation Xrotation Yrotation
                      End Site
                      {
                        OFFSET 0 0 0
                      }
                    }
                  }
                }
              }
              JOINT Bip01_L_Toe0
              {
                OFFSET 1.40707 0.688009 -0.883564
                CHANNELS 6 Xposition Yposition Zposition Zrotation Xrotation Yrotation
                JOINT Bip01_L_Toe01
                {
                  OFFSET 2.26828 0 0
                  CHANNELS 6 Xposition Yposition Zposition Zrotation Xrotation Yrotation
                  JOINT Bip01_L_Toe02
                  {
                    OFFSET 2.0977 0 0
                    CHANNELS 6 Xposition Yposition Zposition Zrotation Xrotation Yrotation
                    JOINT Bip01_L_Toe0Nub
                    {
                      OFFSET 1.53752 0 0
                      CHANNELS 6 Xposition Yposition Zposition Zrotation Xrotation Yrotation
                      End Site
                      {
                        OFFSET 0 0 0
                      }
                    }
                  }
                }
              }
            }
          }
        }
      }
      JOINT Bip01_Spine1
      {
        OFFSET 4.90674 -0.00437896 0
        CHANNELS 6 Xposition Yposition Zposition Zrotation Xrotation Yrotation
        JOINT Bip01_Neck
        {
          OFFSET 5.56447 -1.28357 0
          CHANNELS 6 Xposition Yposition Zposition Zrotation Xrotation Yrotation
          JOINT Bip01_Neck1
          {
            OFFSET 2.79308 -0.00219964 0
            CHANNELS 6 Xposition Yposition Zposition Zrotation Xrotation Yrotation
            JOINT Bip01_Head
            {
              OFFSET 2.79272 0 0
              CHANNELS 6 Xposition Yposition Zposition Zrotation Xrotation Yrotation
              JOINT BN_Mouth_01
              {
                OFFSET 4.19089 0.0665938 0
                CHANNELS 6 Xposition Yposition Zposition Zrotation Xrotation Yrotation
                End Site
                {
                  OFFSET 0 0 0
                }
              }
              JOINT Bip01_HeadNub
              {
                OFFSET 6.95118 0 0
                CHANNELS 6 Xposition Yposition Zposition Zrotation Xrotation Yrotation
                End Site
                {
                  OFFSET 0 0 0
                }
              }
            }
          }
        }
      }
    }
  }
}
MOTION
Frames:	3
Frame Time:	0.0333333
0.849866 14.5652 0 96.9536 -90 -180 0 0 0 -89.9988 6.18131 -89.9989 -5.52396 -0.332281 0 -21.8976 -2.75958 179.946 6.48885 0 5.96046e-008 -17.5049 -7.53145e-008 7.66449e-008 7.0876 9.53675e-007 0.000513077 -12.1122 0.000367206 -0.00348761 4.02139 0.398889 0 -2.33277 2.79541e-017 5.21088e-011 4.47645 -4.1544 -0.36784 -63.5334 -63.5599 79.4802 8.51611 2.38419e-007 0 122.432 77.109 23.4528 10.1924 -3.55272e-015 0 -118.736 -10.6266 13.474 14.5949 -1.43856 0.585078 -20.7599 0.880927 3.03447 14.4623 -1.90736e-006 0 -50.39 7.42509 0.965062 4.85599 -3.27139 0.772033 119.404 -62.5081 -101.251 8.51612 4.4409e-016 -7.10542e-015 -142.165 -70.4685 7.57481 10.1924 0 1.77635e-015 126.015 12.5525 18.0226 14.4623 1.77636e-015 4.76837e-007 34.612 0.30351 7.87889 14.5949 1.43852 0.585101 5.55958 -3.42606 13.2429 -4.00229 -0.561172 -3.45393 -102.793 2.9211 -174.482 3.92617 -8.8818e-016 4.44089e-016 -71.181 3.18514e-006 9.40867e-006 6.1232 8.88181e-016 4.44089e-016 103.069 -9.52183e-007 -9.76034e-006 9.94775 0 4.44089e-016 -59.0039 18.423 -3.41197 0.881236 -0.110961 0.0158242 110.21 -3.28659 176.752 2.32136 0 8.9407e-008 46.4406 8.58761e-006 7.4476e-006 1.63292 0 4.47035e-008 -54.5976 -4.16997e-006 1.16002e-005 1.72129 0 -7.45058e-009 -1.62701e-006 1.00594e-005 2.45256e-006 0.994712 0.967274 -1.09432 71.6797 -11.0426 25.3265 2.202 2.38422e-007 0 37.0436 8.93606e-006 8.60484e-006 1.84924 0 2.38419e-007 -30.305 -1.43636e-005 -9.63686e-006 1.70976 2.38423e-007 2.38419e-007 8.39705e-007 -1.53219e-007 -3.67725e-008 1.37479 1.34026 -0.0712928 79.6945 0.482235 -2.64826 2.26123 1.19211e-007 -4.91739e-007 24.1835 1.53699e-005 5.2217e-006 2.22213 4.44096e-016 1.41561e-007 -43.5071 -9.70868e-006 6.85406e-006 1.61866 -4.76846e-007 2.68221e-007 4.20163e-007 1.02733e-005 4.71786e-008 1.40696 0.687988 0.883735 81.4243 5.30024 -42.4985 2.26827 0 0 29.1653 1.99784e-005 -6.09562e-006 2.09769 -4.76845e-007 -1.43051e-006 -55.023 -2.98932e-006 5.5412e-006 1.53752 -4.76848e-007 0 1.00861e-006 1.04803e-005 -1.86648e-008 -4.00182 -0.561883 3.45359 -49.7418 -3.98688 178.859 3.92617 4.76838e-007 0 -31.3827 -2.38681e-007 -1.63375e-007 6.1232 0 -4.44089e-016 110.17 -3.61728e-006 -9.31184e-006 9.94776 -2.3842e-007 2.38419e-007 -50.6667 -16.2714 3.29018 0.881238 -0.110963 -0.0158114 110.799 3.25268 -176.834 2.32136 0 2.38419e-007 54.4402 1.03229e-005 -1.62288e-006 1.63293 -2.98028e-008 -2.38419e-007 -61.5261 2.3495e-006 4.25887e-006 1.72129 -1.19212e-007 -4.44089e-016 -179.96 -0.000107518 -7.40122e-005 0.994704 0.967277 1.09432 74.9865 9.48059 -25.9179 2.20201 -1.19211e-007 -4.44089e-016 40.0409 3.47747e-006 -1.53483e-006 1.84925 -2.38422e-007 4.44089e-016 -72.6411 -1.05795e-005 4.82908e-006 1.70976 8.88198e-016 0 -179.96 9.88791e-005 -4.99176e-006 1.3748 1.34026 0.0713029 72.3142 -0.819737 2.5656 2.26123 0 -2.22045e-016 31.1828 3.57261e-006 9.78019e-006 2.22213 1.19211e-007 1.19209e-007 -38.5073 3.45369e-006 1.38202e-005 1.61867 -2.38423e-007 2.38419e-007 -179.96 9.89014e-005 -4.87391e-005 1.40698 0.687974 -0.883719 79.3748 -6.54411 31.2861 2.26828 0 4.44089e-016 26.1651 -1.19765e-005 9.99631e-006 2.0977 -2.22048e-016 -5.36441e-007 -61.0221 1.17554e-005 2.54633e-005 1.53753 4.76848e-007 -5.96046e-008 179.96 9.92966e-005 -1.27139e-005 4.9056 -0.00427723 2.91038e-011 -10.9345 4.11779 -0.104888 5.56289 -1.28305 0 -40.6065 -0.451114 -1.94565 2.79232 -0.00218678 4.47035e-008 -10.7173 0.00222382 -0.997349 2.79273 -1.77636e-015 2.98023e-008 105.05 -1.74649 2.72057 4.19087 0.0665932 -2.22045e-016 178.234 -0.0556946 179.999 6.95116 0 1.19209e-007 -1.17075e-006 1.16107e-008 3.06464e-008 
0.760126 14.1779 6.78536e-009 102.058 -90 -175.464 0 0 0 -89.9987 3.5995 -89.9988 -5.52396 -0.332281 -6.93347e-017 -23.4849 -2.46619 179.953 6.48885 -3.55272e-015 5.96046e-008 -20.7386 -1.01652e-007 7.87023e-008 7.0876 9.53675e-007 0.000513077 -11.7574 0.00157594 -0.00940103 4.03528 0.217381 3.52908e-016 -3.98575 0.00346112 0.000114268 4.51579 -4.0557 -0.717324 -84.545 -52.3588 70.0527 8.51612 2.38419e-007 3.55271e-015 124.627 72.2462 13.9111 10.1924 -1.06582e-014 -1.06581e-014 -115.562 -12.3781 17.8599 14.5949 -1.43856 0.585078 -25.3677 -2.59162 6.51112 14.4623 -1.90736e-006 2.66453e-014 -50.2775 3.03568 1.27977 4.85487 -3.26648 1.07931 97.8692 -51.4632 -110.462 8.51612 1.77636e-015 0 -137.341 -65.829 4.55869 10.1924 -3.55272e-015 0 121.96 13.9555 21.9897 14.4623 -1.24345e-014 4.76837e-007 37.4263 3.6168 10.8548 14.5949 1.43852 0.585101 8.95646 0.450825 12.6475 -4.01061 -0.49572 -3.45393 -105.03 -4.41912 -174.099 3.92617 -1.77636e-015 6.66134e-016 -91.6601 -1.0557e-005 9.53915e-006 6.1232 5.32909e-015 2.22045e-016 114.011 -3.38192e-006 -9.42937e-006 9.94775 -3.55273e-015 6.66134e-016 -50.0767 14.3999 -7.55896 0.881236 -0.11096 0.0158242 109.355 -2.9794 177.338 2.32136 3.44173e-015 8.9407e-008 46.4406 8.31048e-006 7.55583e-006 1.63293 -1.55434e-015 4.47035e-008 -54.5962 -0.000436622 0.000319295 1.72129 4.55202e-015 -7.45058e-009 -1.62701e-006 1.00594e-005 2.45256e-006 0.994713 0.967273 -1.09432 68.5497 -12.333 25.4432 2.202 2.38422e-007 0 37.0436 9.31715e-006 8.42056e-006 1.84924 -3.55277e-015 2.38419e-007 -30.3063 0.00113829 -0.00198237 1.70976 2.38423e-007 2.38419e-007 8.39705e-007 -1.53219e-007 -3.67725e-008 1.37479 1.34026 -0.0712928 75.3793 0.645351 -1.92189 2.26123 1.19211e-007 -4.91738e-007 24.1823 -0.00328655 -0.00734716 2.22213 7.32758e-015 1.41561e-007 -43.5071 -0.00120688 0.00126897 1.61866 -4.76846e-007 2.68221e-007 4.20163e-007 1.02733e-005 4.71786e-008 1.40696 0.687987 0.883735 79.4252 6.2072 -38.8893 2.26828 6.66143e-016 3.9968e-015 29.1653 1.66985e-005 -4.71934e-006 2.0977 -4.76845e-007 -1.43051e-006 -55.023 0.00126977 -0.000881884 1.53752 -4.76848e-007 1.77636e-015 1.00861e-006 1.04803e-005 -1.86648e-008 -4.01133 -0.49531 3.45359 -55.5318 0.51662 176.17 3.92617 4.76838e-007 -1.77636e-015 -42.2361 -1.52437e-007 -2.88613e-007 6.1232 1.77636e-015 -4.44089e-016 115.851 -4.23584e-006 -8.79801e-006 9.94776 -2.3842e-007 2.38419e-007 -51.3905 -12.6715 3.75154 0.881237 -0.110963 -0.0158114 110.921 3.00554 -177.433 2.32136 4.60748e-015 2.38419e-007 54.4402 1.0234e-005 -1.55159e-006 1.63293 -2.98028e-008 -2.38419e-007 -61.5261 2.4599e-006 4.2922e-006 1.72129 -1.19212e-007 -1.11022e-015 -179.96 -0.000107518 -7.40123e-005 0.994704 0.967277 1.09432 74.5992 9.95765 -26.5157 2.20201 -1.19211e-007 -1.77636e-015 40.0409 9.82443e-006 6.16801e-006 1.84925 -2.38422e-007 0 -72.6411 -1.04476e-005 4.88475e-006 1.70976 -8.88198e-016 8.88178e-016 -179.96 9.88791e-005 -4.99184e-006 1.3748 1.34026 0.0713029 72.7241 -0.627374 1.87438 2.26123 2.66457e-015 -4.44089e-016 31.1828 3.51927e-006 9.77133e-006 2.22213 1.19211e-007 1.19209e-007 -38.5073 3.50961e-006 1.38625e-005 1.61867 -2.38423e-007 2.38419e-007 -179.96 9.89015e-005 -4.87391e-005 1.40698 0.687974 -0.883719 79.9873 -6.1629 30.6164 2.26828 1.11024e-015 -1.33227e-015 26.1651 -1.18921e-005 9.79345e-006 2.0977 -1.55433e-015 -5.36441e-007 -61.0221 1.19291e-005 2.57507e-005 1.53753 4.76848e-007 -5.96046e-008 179.96 9.92963e-005 -1.27138e-005 4.9056 -0.00427723 2.91043e-011 -10.6854 4.00101 -0.103067 5.56289 -1.28305 -1.06581e-013 -38.1032 -0.443066 -1.7347 2.79232 -0.00218678 4.47035e-008 -11.4372 0.00498145 -0.891152 2.79273 3.55272e-015 2.98023e-008 96.9116 -2.02613 2.68614 4.19087 0.0665932 -8.57536e-013 178.4 -0.051941 179.998 6.95116 -7.10544e-015 1.19209e-007 -1.17075e-006 1.16107e-008 3.06464e-008 
0.666295 13.5002 8.61306e-009 97.9957 -90 -180 0 0 0 -89.9985 0.648902 -89.9988 -5.52396 -0.332281 -3.7985e-016 -26.4402 -1.78818 179.964 6.48885 5.32907e-015 5.96046e-008 -27.4919 -1.28436e-007 8.21208e-008 7.08759 9.53674e-007 0.000513077 -11.4094 0.00269165 -0.0152219 4.04134 0.00936186 9.67705e-015 -4.50901 3.59705e-010 6.28082e-011 4.60587 -3.82849 -1.5252 -100.558 -40.1072 68.4495 8.51612 2.38419e-007 -1.06581e-014 116.446 59.6314 4.04677 10.1924 -1.42109e-014 -1.06581e-014 -106.709 -15.7417 28.2491 14.5949 -1.43856 0.585078 -34.3692 -10.3357 14.7583 14.4623 -1.90736e-006 2.84217e-014 -49.6296 -7.09798 2.17691 4.85181 -3.2563 1.78703 81.1534 -39.4374 -112.012 8.51612 1.77636e-015 -3.55271e-015 -122.332 -54.4621 0.444331 10.1924 -2.66454e-015 1.06581e-014 111.276 16.5718 31.3517 14.4623 -7.10545e-015 4.76837e-007 42.5935 10.9077 17.9869 14.5949 1.43852 0.585101 17.0738 9.44511 11.4717 -4.02809 -0.325018 -3.45393 -102.643 -10.9451 -174.089 3.92617 -3.55272e-015 -4.44089e-016 -106.853 -1.20127e-005 6.55444e-006 6.1232 0 6.66134e-016 125.957 -5.21225e-006 -7.84554e-006 9.94776 -8.88183e-016 4.44089e-016 -41.6843 9.90321 -10.3576 0.881237 -0.11096 0.0158242 108.235 -3.2578 176.507 2.32136 5.49567e-015 8.9407e-008 46.4406 8.6754e-006 7.37517e-006 1.63293 0 4.47035e-008 -54.595 -0.000868351 0.000625743 1.72129 -6.66149e-016 -7.45058e-009 -1.62701e-006 1.00594e-005 2.45256e-006 0.994714 0.967272 -1.09432 62.6949 -14.2834 23.402 2.202 2.38421e-007 4.44089e-016 37.0436 9.45148e-006 8.05906e-006 1.84925 -4.10789e-015 2.38419e-007 -30.3075 0.00225474 -0.0038927 1.70977 2.38423e-007 2.38419e-007 8.39705e-007 -1.53219e-007 -3.67725e-008 1.37479 1.34026 -0.0712928 67.6644 1.10055 -2.59864 2.26123 1.19211e-007 -4.91738e-007 24.1811 -0.00653213 -0.0145751 2.22213 7.05001e-015 1.41561e-007 -43.5071 -0.00238764 0.00251376 1.61867 -4.76845e-007 2.68221e-007 4.20163e-007 1.02733e-005 4.71786e-008 1.40696 0.687987 0.883735 76.1791 7.96491 -33.9117 2.26828 4.663e-015 5.10702e-015 29.1653 1.58455e-005 -4.1994e-006 2.0977 -4.76844e-007 -1.43051e-006 -55.023 0.00250211 -0.0017435 1.53753 -4.76847e-007 4.44089e-015 1.00861e-006 1.04803e-005 -1.86648e-008 -4.02889 -0.32549 3.45359 -63.7383 5.68283 174.123 3.92617 4.76838e-007 -1.77636e-015 -56.8685 -1.97909e-008 -3.86593e-007 6.1232 5.32909e-015 4.44089e-016 124.085 -4.49489e-006 -8.49925e-006 9.94776 -2.3842e-007 2.38419e-007 -51.918 -8.93977 4.53097 0.881237 -0.110963 -0.0158114 110.447 3.03407 -177.297 2.32136 1.14354e-014 2.38419e-007 54.4402 9.95285e-006 -1.4077e-006 1.63293 -2.98028e-008 -2.38419e-007 -61.5261 2.76143e-006 4.44896e-006 1.72129 -1.19212e-007 2.22045e-016 -179.96 -0.000107518 -7.40124e-005 0.994704 0.967277 1.09432 72.6176 10.8 -26.0912 2.20201 -1.19211e-007 0 40.0409 9.54455e-006 6.22629e-006 1.84925 -2.38422e-007 8.88178e-016 -72.6411 -1.01433e-005 5.08568e-006 1.70976 -8.88198e-016 -8.88178e-016 -179.96 9.88791e-005 -4.99201e-006 1.3748 1.34026 0.0713029 73.0964 -0.627446 1.98443 2.26123 6.66141e-016 -1.33227e-015 31.1828 3.33559e-006 9.81232e-006 2.22213 1.19211e-007 1.19209e-007 -38.5073 3.71671e-006 1.39347e-005 1.61867 -2.38423e-007 2.38419e-007 -179.96 9.89016e-005 -4.87392e-005 1.40698 0.687974 -0.883719 81.0602 -5.46741 30.8377 2.26828 -1.55433e-015 8.88177e-016 26.1651 -1.21902e-005 9.53932e-006 2.0977 -2.22048e-016 -5.36441e-007 -61.0221 1.27289e-005 2.6464e-005 1.53753 4.76848e-007 -5.96046e-008 179.96 9.9296e-005 -1.27136e-005 4.9056 -0.00427723 2.91043e-011 -10.0449 3.68803 -0.0937424 5.56289 -1.28305 1.80647e-011 -35.7349 -0.419802 -1.51327 2.79232 -0.00218678 4.47036e-008 -12.4712 0.0117037 -0.783246 2.79273 1.24345e-014 2.98023e-008 86.6204 -2.28351 2.4122 4.19087 0.0665932 -6.01741e-014 178.564 -0.0482636 179.997 6.95116 -7.10544e-015 1.19209e-007 -1.17075e-006 1.16107e-008 3.06464e-008 
